<?xml version="1.0" encoding="utf-8" ?>
<!-- Generator: Assembly 1.0 - http://assemblyapp.co -->
<svg version="1.1" xmlns="http://www.w3.org/2000/svg" xmlns:xlink="http://www.w3.org/1999/xlink" width="300" height="300" viewBox="0 0 300 300">
	<rect x="0" y="0" width="300" height="300" fill="#ffffff" />
	<g id="widget" transform="matrix(1,0,0,1,150,150)">
		<path d="M-77.823621,25.125232 Q-69.255883,25.125232 -63.578056,17.951451Q-57.90023,10.77767 -57.90023,-3.5018929Q-57.90023,-12.205627 -60.416153,-18.461436Q-65.176007,-30.497068 -77.823621,-30.497068Q-90.539232,-30.497068 -95.231088,-17.781456Q-97.747011,-10.981664 -97.747011,-0.50998441Q-97.747011,7.9217578 -95.231088,13.837577Q-90.471234,25.125232 -77.823621,25.125232Z M-109.51065,-39.132804 L-97.611016,-39.132804 L-97.611016,-29.477099 Q-93.939128,-34.440947 -89.587261,-37.160864Q-83.39945,-41.240739 -75.035706,-41.240739Q-62.660084,-41.240739 -54.024348,-31.755029Q-45.388612,-22.269319 -45.388612,-4.6578576Q-45.388612,19.141415 -57.832232,29.341103Q-65.719991,35.800905 -76.19167,35.800905Q-84.419419,35.800905 -89.995248,32.197016Q-93.259149,30.157078 -97.271026,25.19323L-97.271026,62.388092 L-109.51065,62.388092 Z" fill="#000000" fill-opacity="1" />
		<path d="M-22.8813,8.5337391 Q-21.657338,19.005419 -13.157598,23.017296Q-8.8057308,25.057234 -3.0939054,25.057234Q7.785762,25.057234 13.021602,18.121446Q18.257442,11.185658 18.257442,2.7539158Q18.257442,-7.4457723 12.035632,-13.021602Q5.8138222,-18.597431 -2.8899116,-18.597431Q-9.2137183,-18.597431 -13.73558,-16.149506Q-18.257442,-13.701581 -21.453344,-9.3497141L-32.06102,-9.9616954 L-24.649246,-62.388092 L25.941207,-62.388092 L25.941207,-50.556454 L-15.469527,-50.556454 L-19.6174,-23.493282 Q-16.217504,-26.077203 -13.157598,-27.369163Q-7.717764,-29.613095 -0.57798233,-29.613095Q12.817608,-29.613095 22.133323,-20.977359Q31.449038,-12.341623 31.449038,0.91797193Q31.449038,14.72155 22.915299,25.261228Q14.38156,35.800905 -4.317868,35.800905Q-16.217504,35.800905 -25.363225,29.10311Q-34.508945,22.405315 -35.596912,8.5337391Z" fill="#000000" fill-opacity="1" />
		<path d="M77.075643,25.125232 Q85.643381,25.125232 91.321208,17.951451Q96.999034,10.77767 96.999034,-3.5018929Q96.999034,-12.205627 94.483111,-18.461436Q89.723257,-30.497068 77.075643,-30.497068Q64.360032,-30.497068 59.668176,-17.781456Q57.152253,-10.981664 57.152253,-0.50998441Q57.152253,7.9217578 59.668176,13.837577Q64.42803,25.125232 77.075643,25.125232Z M45.388612,-39.132804 L57.288248,-39.132804 L57.288248,-29.477099 Q60.960136,-34.440947 65.312003,-37.160864Q71.499814,-41.240739 79.863558,-41.240739Q92.23918,-41.240739 100.87492,-31.755029Q109.51065,-22.269319 109.51065,-4.6578576Q109.51065,19.141415 97.067032,29.341103Q89.179273,35.800905 78.707594,35.800905Q70.479845,35.800905 64.904016,32.197016Q61.640115,30.157078 57.628238,25.19323L57.628238,62.388092 L45.388612,62.388092 Z" fill="#000000" fill-opacity="1" />
	</g>
</svg>